<svg xmlns="http://www.w3.org/2000/svg" viewBox="0 0 200 200" width="100%" height="100%">
    <g transform="translate(100,100) rotate(-25) translate(-100,-100)">
        <path d="M 15,100 A 85,85 0 0,0 185,100" fill="none" stroke="#4E342E" stroke-width="6" stroke-linecap="round"/>
        <path d="M 15,100 A 85,85 0 0,0 185,100 Z" fill="#FF8C00"/>
        <path d="M 23,100 A 77,77 0 0,0 177,100 Z" fill="#FFF8E1"/>
        <g transform="translate(100,100)">
            <defs>
                <g id="wedge">
                    <path d="M 9.7,-2.3 L 69.2,-16.0 A 71,71 0 0,1 69.2,16.0 L 9.7,2.3 A 10,10 0 0,0 9.7,-2.3 Z" fill="#FF9800"/>
                    <line x1="22" y1="-3.5" x2="33" y2="-5.5" stroke="#FFE0B2" stroke-width="3" stroke-linecap="round"/>
                    <line x1="22" y1="3.5" x2="33" y2="5.5" stroke="#FFE0B2" stroke-width="3" stroke-linecap="round"/>
                    <line x1="38" y1="0" x2="52" y2="0" stroke="#FFE0B2" stroke-width="3" stroke-linecap="round"/>
                    <line x1="48" y1="-7.5" x2="59" y2="-10.5" stroke="#FFE0B2" stroke-width="2" stroke-linecap="round"/>
                    <line x1="48" y1="7.5" x2="59" y2="10.5" stroke="#FFE0B2" stroke-width="2" stroke-linecap="round"/>
                </g>
            </defs>
            <use href="#wedge" transform="rotate(15)" />
            <use href="#wedge" transform="rotate(45)" />
            <use href="#wedge" transform="rotate(75)" />
            <use href="#wedge" transform="rotate(105)" />
            <use href="#wedge" transform="rotate(135)" />
            <use href="#wedge" transform="rotate(165)" />
        </g>
    </g>
</svg>
